<?xml version="1.0"?>
<svg xmlns="http://www.w3.org/2000/svg" height="512px" viewBox="0 0 512 512" width="512px" class=""><g transform="matrix(1 0 0 1 0 0)"><script xmlns="" style="fill:null"/><script xmlns="" style="fill:null"/><path d="m512 256c0 141.386719-114.613281 256-256 256s-256-114.613281-256-256 114.613281-256 256-256 256 114.613281 256 256zm0 0" fill="#09ce67" data-original="#09CE67" class="" style="fill:#58D231" data-old_color="#58d231"/><path d="m487.65625 365.054688-274.980469-274.984376v276.378907l130.359375 130.363281c63.855469-23.082031 115.894532-70.839844 144.621094-131.757812zm0 0" fill="#1aad5c" data-original="#1AAD5C" class="active-path" style="fill:#4B9E2E" data-old_color="#4b9e2e"/><path d="m368.722656 287.710938c-9.628906-62.75-63.613281-109.085938-127.101562-109.085938h-28.945313v-88.554688l-138.191406 138.191407 138.191406 138.1875v-93.96875h17.4375c32.542969 0 63.136719 15.523437 82.351563 41.789062l76.339844 104.335938zm0 0" fill="#fff" data-original="#FFF" class="" style="fill:#FFF"/><path d="m342.867188 227.929688-268.382813.332031 138.191406 138.1875v-93.96875h17.4375c32.542969 0 63.136719 15.523437 82.351563 41.789062l76.339844 104.335938-20.082032-130.894531c-3.453125-22.496094-12.605468-42.882813-25.855468-59.78125zm0 0" fill="#e9edf5" data-original="#E9EDF5" class="" style="fill:#E9EDF5" data-old_color="#58d231"/></g> </svg>
